<?xml version="1.0" encoding="UTF-8" standalone="no"?>
<svg
   xmlns:dc="http://purl.org/dc/elements/1.1/"
   xmlns:cc="http://creativecommons.org/ns#"
   xmlns:rdf="http://www.w3.org/1999/02/22-rdf-syntax-ns#"
   xmlns:svg="http://www.w3.org/2000/svg"
   xmlns="http://www.w3.org/2000/svg"
   id="svg22"
   version="1.1"
   style="overflow:visible"
   viewBox="-240 -126 480 252"
   height="1008px"
   width="1920px">
  <metadata
     id="metadata28">
    <rdf:RDF>
      <cc:Work
         rdf:about="">
        <dc:format>image/svg+xml</dc:format>
        <dc:type
           rdf:resource="http://purl.org/dc/dcmitype/StillImage" />
      </cc:Work>
    </rdf:RDF>
  </metadata>
  <defs
     id="defs26" />
  <rect
     id="rect2"
     fill-opacity="0"
     fill="rgb(0,0,0)"
     height="252"
     width="480"
     y="-126"
     x="-240" />
  <svg
     id="svg20"
     version="1.1"
     y="-250"
     x="-250"
     viewBox="-250 -250 500 500"
     height="500"
     width="500"
     style="overflow:visible">
    <g
       style="fill:#ffffff;stroke-linejoin:round"
       id="g18">
      <path
         style="fill:#ffffff;fill-opacity:1;stroke:none;stroke-linecap:butt;stroke-linejoin:round"
         id="path4"
         d="M 0,-102.9 C -56.82964,-102.9 -102.9,-56.82964 -102.9,-1e-6 -102.9,56.829638 -56.82964,102.9 -1e-6,102.9 c 1.652958,-0.0191 3.305329,-0.0781 4.955503,-0.1767 40.10811,-12.568713 64.949289,-59.544803 65.00102,-102.363103 -0.009,-42.70399 -23.24245,-84.5551 -64.62218,-102.989597 -1.769677,-0.13919 -3.549294,-0.22867 -5.328925,-0.26844 z" />
      <path
         style="fill:#eeeeee;fill-opacity:1;stroke:none;stroke-linecap:butt;stroke-linejoin:round"
         id="path6"
         d="M 5.3291,-102.6319 A 117.2066,117.2066 0 0 1 65.975489,-2e-6 117.2066,117.2066 0 0 1 4.951309,102.7208 102.9,102.9 0 0 0 102.90021,-2e-6 102.9,102.9 0 0 0 5.329309,-102.6319 Z" />
      <path
         style="fill:#ff3535;fill-opacity:1;stroke:none;stroke-linecap:butt;stroke-linejoin:round"
         id="path8"
         d="m 66.482499,78.532299 a 102.9,102.9 0 0 0 4.456417,-3.914673 c -17.21363,-20.01132 -27.61794,-46.051461 -27.61794,-74.5402 0,-28.46207 10.384429,-54.4803 27.569219,-74.4835 a 102.9,102.9 0 0 0 -4.34189,-4.0467 c -18.18796,21.07812 -29.1928,48.527009 -29.1928,78.5302 0,29.96728 10.97796,57.386419 29.127139,78.4546 z" />
      <path
         style="fill:#ff3535;fill-opacity:1;stroke:none;stroke-linecap:butt;stroke-linejoin:round"
         id="path10"
         d="m -66.4125,-78.4525 a 102.9,102.9 0 0 0 -4.45641,3.914672 c 17.219579,20.003339 27.618919,46.05146 27.618919,74.535299 0,28.461999 -10.38443,54.480299 -27.56922,74.483499 a 102.9,102.9 0 0 0 4.341876,4.046706 c 18.18397,-21.07714 29.18979,-48.52708 29.18979,-78.5323 0,-29.96728 -10.97796,-57.38642 -29.12714,-78.4546 z" />
      <path
         style="fill:#ff3535;fill-opacity:1;stroke:none;stroke-linecap:butt;stroke-linejoin:round"
         id="path12"
         d="m -53.6172,73.560899 -10.91335,-2.112278 -4.857979,-9.99768 3.027555,-3.942701 4.857972,9.99768 10.91335,2.112292 z m 11.19475,-19.1702 -11.11418,-0.185213 -6.52029,-9.00228 2.296909,-4.408495 6.520177,9.002279 11.11418,0.185205 z m 7.69552,-20.82262 -10.97698,1.747514 -7.98448,-7.73332 1.496473,-4.740456 7.98448,7.733319 10.97698,-1.747508 z m 3.962797,-21.84266 -10.50672,3.627147 -9.20598,-6.229377 0.650559,-4.928266 9.20605,6.229376 10.50672,-3.627141 z m 0.10955,-22.19952 -9.71754,5.396636 -10.14783,-4.536154 -0.215103,-4.966346 10.147829,4.536055 9.71754,-5.396531 z m -3.746953,-21.88144 -8.63289,7.0021 -10.78112,-2.705017 -1.074234,-4.853604 10.78112,2.70503 8.63289,-7.0021 z m -7.48965,-20.89815 -7.28581,8.39475 -11.08737,-0.791784 -1.90071,-4.593316 11.08737,0.791798 7.28581,-8.39475 z m -11.00484,-19.27961 -5.717362,9.53239 -11.0565,1.145522 -2.669436,-4.193448 11.0565,-1.145522 5.717362,-9.53239 z" />
      <path
         style="fill:#ff3535;fill-opacity:1;stroke:none;stroke-linecap:butt;stroke-linejoin:round"
         id="path14"
         d="m 53.6872,-73.4818 10.91335,2.112285 4.857964,9.99768 -3.027542,3.942715 L 61.573,-67.4268 50.65965,-69.539085 Z m -11.19475,19.170199 11.11418,0.18522 6.520283,9.002279 -2.29691,4.408495 -6.520178,-9.00228 -11.11418,-0.185213 z m -7.69552,20.82262 10.97698,-1.747508 7.98448,7.733319 -1.496474,4.740449 -7.98448,-7.73332 -10.97698,1.747508 z m -3.962791,21.84266 10.50672,-3.627141 9.20605,6.229376 -0.650559,4.928259 -9.20605,-6.229377 -10.50672,3.627147 z m -0.109557,22.19952 9.71754,-5.396629 10.147829,4.536147 0.215103,4.966346 -10.14783,-4.536056 -9.71754,5.396538 z m 3.746952,21.881439 8.63289,-7.0021 10.78112,2.70503 1.074234,4.85359 -10.78112,-2.705017 -8.63289,7.0021 z m 7.48965,20.89815 7.28581,-8.39475 11.08737,0.791777 1.900717,4.593309 -11.08737,-0.791791 -7.28581,8.39475 z m 11.00484,19.27961 5.717362,-9.53246 11.0565,-1.145522 2.669429,4.193448 -11.0565,1.145522 -5.717362,9.53239 z" />
      <path
         style="fill:none;stroke:#444444;stroke-width:7;stroke-linecap:butt;stroke-linejoin:round;stroke-opacity:1"
         id="path16"
         d="M 102.9,0 A 102.9,102.9 0 0 1 -1e-6,102.9 102.9,102.9 0 0 1 -102.9,-1e-6 102.9,102.9 0 0 1 -2e-6,-102.9 102.9,102.9 0 0 1 102.9,-2e-6 Z" />
    </g>
  </svg>
</svg>
